# xmcd
#
# Track frame offsets: 
#        150
#        13414
#        25331
#        37773
#        48245
#        60388
#        74010
#        87925
#        100562
#        114348
#        123992
#        137099
#        150309
#        162253
#        176398
#        189656
#        201823
#        215862
#        227689
#        240162
#
# Disc length: 3353 seconds
#
# Revision: 4
# Processed by: cddbd v1.5.2PL0 Copyright (c) Steve Scherf et al.
# Submitted via: ExactAudioCopyFreeDBPlugin 1.0
#
DISCID=030d1714
DTITLE=Various Artist - Blues Selection - Vol. 09
DYEAR=2006
DGENRE=Blues
TTITLE0=Roosevelt Sykes - The Honeydripper (1945)
TTITLE1=T-Bone Walker - Bobby Sox Blues (1946)
TTITLE2=Big Joe Turner - Hollywood Bed (1947)
TTITLE3=Lowell Fulson - San Francisco Blues (1946)
TTITLE4=David Edwards - Don't Be So Evil (1947)
TTITLE5=T-Bone Walker - Call It Stormy Monday (1947)
TTITLE6=Arthur 'Big Boy' Crudup - Dirt Road Blues (1945)
TTITLE7=Lonnie Johnson - Love Is The Answer (1947)
TTITLE8=Willie Dixon - If The Sea Was Whiskey (1947)
TTITLE9=Lightnin Hopkins - Feel So Bad (1946)
TTITLE10=John Lee 'Sonny Boy' Williamson - Hoo Doo Hoodoo (1946)
TTITLE11=Muddy Waters - Walkin' Blues (1948)
TTITLE12=Lonnie Johnson - Working Man's Blues (1947)
TTITLE13=John Lee Hooker - Boogie Chillen' (1948)
TTITLE14=Arthur 'Big Boy' Crudup - Rock Me Mama (1944)
TTITLE15=Muddy Waters - I Can't Be Satisfied (1948)
TTITLE16=John Lee Hooker - Sally Mae (1948)
TTITLE17=Lonnie Johnson - Jelly Roll Baker (1947)
TTITLE18=John Lee 'Sonny Boy' Williamson - Shake The Boogie (1946)
TTITLE19=Big Joe Turner - Low Down Dog (1947)
EXTD=
EXTT0=
EXTT1=
EXTT2=
EXTT3=
EXTT4=
EXTT5=
EXTT6=
EXTT7=
EXTT8=
EXTT9=
EXTT10=
EXTT11=
EXTT12=
EXTT13=
EXTT14=
EXTT15=
EXTT16=
EXTT17=
EXTT18=
EXTT19=
PLAYORDER=
